# xmcd
#
# Track frame offsets: 
#        150
#        22384
#        42884
#        64305
#        84388
#        104407
#        123136
#        141687
#        154680
#        173213
#        191468
#        210883
#        231398
#        253515
#        274248
#
# Disc length: 3921 seconds
#
# Revision: 0
# Processed by: cddbd v1.5.2PL0 Copyright (c) Steve Scherf et al.
# Submitted via: ExactAudioCopyFreeDBPlugin 1.0
#
DISCID=d80f4f0f
DTITLE=杨蔓 - DTS 蓝眼泪cd1
DYEAR=2008
DGENRE=Acid
TTITLE0=蓝眼泪
TTITLE1=爱人
TTITLE2=风中的遗憾
TTITLE3=疯狂着迷
TTITLE4=9999滴眼泪(懂爱的人)
TTITLE5=别再说你爱着我
TTITLE6=秋天不回来
TTITLE7=走过咖啡屋
TTITLE8=留爱给最想爱的人
TTITLE9=欲哭无泪
TTITLE10=好想好好爱你
TTITLE11=放弃我是你的错
TTITLE12=你的选择
TTITLE13=遇上你是我的缘
TTITLE14=眼泪
EXTD=
EXTT0=
EXTT1=
EXTT2=
EXTT3=
EXTT4=
EXTT5=
EXTT6=
EXTT7=
EXTT8=
EXTT9=
EXTT10=
EXTT11=
EXTT12=
EXTT13=
EXTT14=
PLAYORDER=
